<?xml version="1.0" encoding="UTF-8"?>
<svg xmlns="http://www.w3.org/2000/svg" viewBox="0 0 586 330" fill="#0f6fb7" aria-hidden="true" focusable="false">
  <g>
    <path d="M66.61,154.96c-10.89,0-19.24-2.71-25.05-8.12s-9.7-12.05-11.69-19.9-2.97-15.28-2.97-22.28c0-14.46.07-29.35.2-44.66h-9.7v-4.95l41.49-25.75-.2,24.46h18.91v6.24h-18.91l-.1,7.23c-.13,23.64-.26,37-.4,40.11-.07,1.98-.1,4.13-.1,6.44l.1,7.13c.46,12.08,4.32,19.34,11.59,21.79,1.91.53,3.7.79,5.35.79,2.64,0,4.92-.66,6.83-1.98,3.17-2.18,5.15-5.28,5.94-9.31.33-1.98.5-3.96.5-5.94v-1.09h7.63v1.58c0,8.65-3.27,15.75-9.8,21.29-4.95,4.16-11.09,6.47-18.42,6.93h-1.19Z"/>
    <path d="M174.63,155.06c-4.16,0-7.72-1.16-10.7-3.47-1.85-1.45-3.23-3.17-4.16-5.15l-.89.5c-3.7,2.05-7.56,3.9-11.59,5.55s-8.22,2.51-12.58,2.57c-11.03-.07-19.64-2.53-25.85-7.38-6.21-4.85-9.54-12.4-10-22.63.53-8.38,2.48-14.97,5.84-19.76s7.64-8.29,12.82-10.5,10.71-3.71,16.59-4.51c2.44-.33,4.92-.59,7.43-.79,3.04-.2,6.02-.54,8.96-1.04s5.83-1.44,8.67-2.82v-1.78c.07-1.78.1-3.73.1-5.84,0-5.08-.46-8.78-1.39-11.09-1.19-2.24-2.84-3.93-4.95-5.05-2.44-1.25-4.89-1.88-7.33-1.88-4.03,0-6.87,1.16-8.52,3.47-1.52,1.98-2.28,4.36-2.28,7.13,0,3.96,1.12,7.79,3.37,11.49h-30.4c-1.58-.13-2.38-.92-2.38-2.38v-.5c3.5-16.97,17.03-25.45,40.6-25.45h3.17c4.69,0,9.21.23,13.57.69,5.28.53,10,2.1,14.16,4.7s7.46,6.85,9.9,12.73c1.72,4.75,2.57,10.03,2.57,15.84v20.5c.13.79.2,6.77.2,17.92l-.1,16.34c0,2.24.64,4.13,1.93,5.64s2.86,2.61,4.7,3.27v3.96l-21.49-.3ZM158.89,139.32l-.1-15.45c0-10.3.1-20.6.3-30.9l-5.64,2.67c-6.47,2.71-12,6.06-16.59,10.05s-6.88,10.15-6.88,18.47c.59,8.78,2.89,14.01,6.88,15.7s7.31,2.53,9.95,2.53c3.7,0,7.72-1.02,12.08-3.07Z"/>
    <path d="M243.93,169.22c-5.81,0-11.85-.99-18.12-2.97s-11.75-5.41-16.44-10.3-7.53-11.59-8.52-20.1l-.1-2.97c0-8.58,2.57-16.34,7.72-23.27,5.68-7.72,12.71-12.08,21.09-13.07h1.39c6.87,0,11.98,1.78,15.35,5.35,3.04,3.3,4.56,6.67,4.56,10.1l-.1,1.78c-.79,4.09-2.38,6.52-4.75,7.28s-4.42,1.14-6.14,1.14-3.4-.26-5.25-.79c-2.18-.59-4.29-.89-6.34-.89-9.04,0-13.57,4.69-13.57,14.06,0,4.29,1.16,8.71,3.47,13.27,2.11,4.16,5.27,7.48,9.46,9.95s9.33,3.71,15.4,3.71h1.88c5.88-.73,10.53-3.8,13.96-9.21,3.96-6.21,5.94-12.77,5.94-19.71,0-5.68-1.12-11.49-3.37-17.43-2.64-7-6.55-12.73-11.73-17.18s-11.21-6.68-18.07-6.68c-3.37,0-7.06.76-11.09,2.28-3.3,1.32-6.17,2.84-8.62,4.56-6.87-5.94-10.43-14.1-10.7-24.46.59-8.65,3.7-15.63,9.31-20.94,5.61-5.31,11.75-8.8,18.42-10.45s12.68-2.48,18.02-2.48c11.82,0,21.75,2.84,29.81,8.52.4-6.8,1.96-12.68,4.7-17.63s6.22-8.95,10.45-11.98c6.73-4.69,14.13-7.03,22.18-7.03,2.97,0,5.88.36,8.72,1.09,7.2,1.91,12.59,5.33,16.19,10.25s5.4,10.91,5.4,17.97l-.1,13.47h19.01v6.14h-19.01l-.1,7.92c-.13,23.17-.26,36.31-.4,39.41-.07,1.98-.1,4.13-.1,6.44l.1,7.13c.26,4.95,1.22,9.47,2.87,13.57s4.56,6.83,8.71,8.22c1.98.53,3.8.79,5.45.79,2.57,0,4.82-.66,6.73-1.98,3.17-2.18,5.18-5.28,6.04-9.31,0-1.58-.89-2.99-2.67-4.21s-3.66-2.29-5.64-3.22l-1.88-.99c-2.18-1.45-3.27-3.43-3.27-5.94v-.89c.33-2.97,1.62-5.15,3.86-6.54,1.45-.66,2.9-.99,4.36-.99.99,0,2.01.17,3.07.5,2.51.86,4.46,2.08,5.84,3.66,2.05,2.64,3.27,5.36,3.66,8.17s.59,5,.59,6.59c0,1.78-.17,3.43-.5,4.95-1.25,5.74-4.35,10.7-9.26,14.85s-11.04,6.47-18.36,6.93h-1.19c-10.89,0-19.18-2.67-24.86-8.02-9.84-9.18-14.76-23.27-14.76-42.29l.1-40.8.1-3.96h-9.7v-4.95l27.44-17.03c.86-1.72,1.29-3.4,1.29-5.05,0-1.98-.59-3.93-1.78-5.84-2.24-3.5-5.35-5.81-9.31-6.93-2.32-.59-4.63-.89-6.94-.89-6.21,0-11.88,1.85-17.03,5.55-4.36,3.04-7.41,6.85-9.16,11.44-1.75,4.59-2.62,9.09-2.62,13.52,0,2.9.26,5.97.79,9.21,1.52,3.57,2.28,7.1,2.28,10.6,0,4.16-1.17,7.63-3.52,10.4-2.34,2.77-5.93,4.29-10.74,4.56-4.23,0-7.56-1.19-10-3.57-3.63-3.43-5.45-7.46-5.45-12.08,0-1.19.07-2.48.2-3.86s.2-2.77.2-4.16-.07-2.87-.2-4.26c-.46-6.14-4.06-9.21-10.79-9.21h-1.29c-5.08.4-8.91,2.2-11.49,5.4-2.57,3.2-3.86,6.62-3.86,10.25,0,1.39.17,2.84.5,4.36.92,3.5,3.4,6.57,7.43,9.21s8.81,5.22,14.36,7.72c6.4,2.97,12.74,6.47,19.01,10.5s11.22,9.03,14.85,15c3.63,5.97,5.45,13.06,5.45,21.24,0,9.24-3.14,16.8-9.41,22.68-5.41,5.02-11.55,8.75-18.42,11.19s-13.2,3.66-19.01,3.66h-1.98Z"/>
    <path d="M367.85,183.98c-5.22-5.48-8.42-9.11-9.61-10.89l34.66-6.54c-.99,1.58-1.67,3.83-2.03,6.73s-.54,5.18-.54,6.83c0,6.6,1.25,9.9,3.76,9.9l.69-.1c3.83-1.19,7.54-3.86,11.14-8.02s6.85-8.75,9.75-13.77,5.28-9.37,7.13-13.07h-.1l-37.93-88.14c-1.06-2.31-2.64-4.26-4.75-5.84-2.57-1.78-5.41-2.94-8.52-3.47v-3.86h50.41v3.96c-1.91.26-3.47,1.19-4.65,2.77-.53.86-.79,1.72-.79,2.57,0,.59.13,1.19.4,1.78l22.58,52.19,22.48-52.09c.26-.59.4-1.22.4-1.88,0-.86-.26-1.72-.79-2.57-1.19-1.58-2.77-2.51-4.75-2.77v-3.96h25.25v3.96c-2.97.46-5.71,1.58-8.22,3.37-2.11,1.58-3.7,3.53-4.75,5.84-4.49,10.56-8.75,20.86-12.77,30.9-4.36,11.03-8.86,21.92-13.52,32.68s-9.92,21.56-15.8,32.38c-3.3,6.47-7.43,13.01-12.38,19.61s-10.73,11.03-17.33,13.27c-2.31.59-4.52.89-6.63.89-7.13,0-14.72-4.23-22.78-12.68Z"/>
  </g>
  <g>
    <path d="M94.31,308.94v-3.96c1.85-.66,3.42-1.72,4.7-3.17s1.93-3.2,1.93-5.25l-.4-82.69h-9.8v-6.24h9.8c0-14.13,4.14-24.59,12.43-31.39s18.8-10.2,31.54-10.2c10.3,0,19.38,2.57,27.23,7.72,7.46,5.02,11.98,12.44,13.57,22.28h-32.48c1.58-.92,2.64-2.56,3.17-4.9s.79-4.14.79-5.4c0-2.18-.43-4.39-1.29-6.63-1.45-3.5-4.75-5.78-9.9-6.83l-1.88-.1c-4.29,0-7.33,1.42-9.11,4.26-2.11,3.23-3.25,6.52-3.42,9.85s-.25,5.86-.25,7.58c0,2.97.1,5.81.3,8.52.13,1.98.2,3.73.2,5.25h30.8v6.24h-30.7c.4,27.53.59,55.09.59,82.69,0,2.05.64,3.8,1.93,5.25s2.82,2.51,4.6,3.17v3.96h-44.37Z"/>
    <path d="M185.01,302.26c-8.22-4.52-14.41-10.68-18.57-18.47s-6.27-16.64-6.34-26.54c0-9.77,2.2-18.42,6.59-25.95,4.39-7.53,10.83-13.45,19.31-17.78,8.48-4.32,18.8-6.49,30.95-6.49s21.57,2.05,29.26,6.14c7.69,4.09,13.5,9.64,17.43,16.64s6.16,14.99,6.68,23.97v.5c0,7.39-2.76,14-8.27,19.81s-11.77,10.18-18.77,13.12c-7,2.94-13.07,4.41-18.22,4.41l-2.57-.1c-4.29-.4-6.44-1.16-6.44-2.28,0-.92,1.65-2.11,4.95-3.57,7-3.5,11.87-8.1,14.61-13.81s4.11-11.31,4.11-16.79c0-5.15-.46-10.6-1.39-16.34-1.72-10.56-5.22-17.92-10.5-22.08-2.9-2.24-6.54-3.37-10.89-3.37-6.14.13-11.09,2.28-14.85,6.44-3.76,4.16-6.54,9.54-8.32,16.14-1.98,7.33-2.97,15.51-2.97,24.56,0,6.27.66,12.35,1.98,18.22,1.45,6.8,4.03,12.43,7.72,16.88s8.71,6.88,15.05,7.28h.69c9.18,0,18.55-2.49,28.12-7.48,9.57-4.98,18.68-11.01,27.33-18.07,8.65-7.06,16.08-13.53,22.28-19.41v-32.28c0-1.78-.68-3.23-2.03-4.36s-2.86-1.82-4.51-2.08v-4.46l37.73-6.93v24.96c3.57-5.68,8-10.74,13.52-15.2,5.51-4.46,11.57-7.51,18.17-9.16,2.77-.53,5.38-.79,7.82-.79,5.68,0,10.4,1.45,14.16,4.36,5.41,4.16,9.21,10.07,11.39,17.73,1.85,7.33,2.77,14.26,2.77,20.8v46.35c.13,1.98.83,3.66,2.08,5.05s2.77,2.44,4.56,3.17v3.96l-44.46-.1v-3.86c4.03-1.45,6.24-4.26,6.63-8.42v-44.27c0-8.25-1.16-14.79-3.47-19.61-2.64-4.89-5.91-7.33-9.8-7.33h-.89c-4.29.46-8.48,2.61-12.58,6.44-9.64,9.04-22.69,20.68-39.17,34.91-16.47,14.23-29.82,24.58-40.06,31.05-5.81,3.5-11.97,6.26-18.47,8.27-6.5,2.01-13.72,3.02-21.64,3.02-12.28,0-22.53-2.26-30.75-6.78ZM287.46,308.84v-3.86c1.78-.66,3.32-1.73,4.6-3.22s1.93-3.22,1.93-5.2v-22.08l17.92-15.05c3.57-2.9,6.14-4.72,7.72-5.45,1.06-.46,1.95-.69,2.67-.69.46,0,.92.1,1.39.3.99.46,1.49,1.88,1.49,4.26v38.72c0,1.98.64,3.7,1.93,5.15s2.86,2.54,4.7,3.27v3.96l-44.37-.1Z"/>
    <path d="M446.09,308.84c-10.89,0-19.24-2.71-25.05-8.12s-9.7-12.05-11.69-19.9c-1.98-7.86-2.97-15.28-2.97-22.28,0-14.46.07-29.35.2-44.66h-9.7v-4.95l41.49-25.75-.2,24.46h18.91v6.24h-18.91l-.1,7.23c-.13,23.64-.26,37-.4,40.11-.07,1.98-.1,4.13-.1,6.44l.1,7.13c.46,12.08,4.32,19.34,11.59,21.79,1.91.53,3.7.79,5.35.79,2.64,0,4.91-.66,6.83-1.98,3.17-2.18,5.15-5.28,5.94-9.31.33-1.98.5-3.96.5-5.94v-1.09h7.63v1.58c0,8.65-3.27,15.75-9.8,21.29-4.95,4.16-11.09,6.47-18.41,6.93h-1.19Z"/>
    <path d="M522.23,309.04c-5.94,0-12.11-.56-18.52-1.68-15.84-2.84-24.3-11.29-25.35-25.35h32.68c-1.52,2.71-2.28,5.25-2.28,7.63,0,2.05.56,3.99,1.68,5.84,2.44,3.96,6.6,6.17,12.48,6.63,4.62-.07,8.52-1.75,11.69-5.05,3.83-3.9,5.74-7.72,5.74-11.49,0-4.09-2.15-7.46-6.44-10.1-4.89-3.04-10.93-5.84-18.12-8.42-5.68-2.18-11.27-4.64-16.79-7.38-5.51-2.74-10.12-6.12-13.81-10.15s-5.71-9.11-6.04-15.25v-.3c0-6.54,2.16-11.73,6.49-15.6s9.85-6.62,16.59-8.27,13.6-2.48,20.6-2.48h2.18c11.55,0,20.8,1.95,27.73,5.84,7.46,4.09,12.08,11.55,13.86,22.38h-31.99c.86-2.51,1.29-5.25,1.29-8.22,0-4.03-1.01-7.31-3.02-9.85s-5.13-3.81-9.36-3.81h-.69c-4.89.33-8.58,1.73-11.09,4.21s-3.76,5.2-3.76,8.17c0,1.06.13,2.18.4,3.37.92,2.84,3.32,5.33,7.18,7.48s8.47,4.27,13.81,6.39c6.14,2.38,12.25,5.2,18.32,8.47,6.07,3.27,10.84,7.33,14.31,12.18s5.2,10.61,5.2,17.28l-.1,3.57c-.66,5.55-3.2,10.1-7.63,13.67s-9.87,6.17-16.34,7.82-13.1,2.48-19.9,2.48h-.99Z"/>
  </g>
</svg>
