<?xml version="1.0" encoding="UTF-8"?>
<svg xmlns="http://www.w3.org/2000/svg" width="20" height="20" viewBox="-12 -12 524 524" preserveAspectRatio="xMidYMid meet" aria-hidden="true" focusable="false">
  <path fill="#ffffff" d="M154.14,440.98c-29.12,0-51.44-7.24-66.97-21.71-15.53-14.47-25.94-32.21-31.24-53.21-5.29-21-7.94-40.85-7.94-59.56,0-38.65.18-78.44.53-119.38h-25.94v-13.24l110.91-68.82-.53,65.38h50.56v16.68h-50.56l-.26,19.32c-.35,63.18-.71,98.91-1.06,107.2-.18,5.29-.26,11.03-.26,17.21l.26,19.06c1.24,32.29,11.56,51.71,30.97,58.23,5.12,1.41,9.88,2.12,14.29,2.12,7.06,0,13.15-1.76,18.26-5.29,8.47-5.82,13.76-14.12,15.88-24.88.88-5.29,1.32-10.59,1.32-15.88v-2.91h20.38v4.24c0,23.12-8.74,42.09-26.21,56.91-13.24,11.12-29.65,17.29-49.23,18.53h-3.18Z"/>
  <path fill="#ffffff" d="M234.15,440.98v-10.59c4.94-1.76,9.13-4.59,12.57-8.47,3.44-3.88,5.16-8.56,5.16-14.03l-1.06-221.03h-26.21v-16.68h26.21c0-37.76,11.07-65.73,33.22-83.91,22.15-18.18,50.25-27.26,84.31-27.26,27.53,0,51.79,6.88,72.79,20.65,19.94,13.41,32.03,33.26,36.26,59.56h-86.82c4.24-2.47,7.06-6.84,8.47-13.1,1.41-6.26,2.12-11.07,2.12-14.43,0-5.82-1.15-11.74-3.44-17.74-3.88-9.35-12.71-15.44-26.47-18.26l-5.03-.26c-11.47,0-19.59,3.79-24.35,11.38-5.65,8.65-8.69,17.43-9.13,26.34s-.66,15.66-.66,20.25c0,7.94.26,15.53.79,22.76.35,5.29.53,9.97.53,14.03h82.32v16.68h-82.06c1.06,73.59,1.59,147.26,1.59,221.03,0,5.47,1.72,10.15,5.16,14.03,3.44,3.88,7.54,6.71,12.31,8.47v10.59h-118.59Z"/>
</svg>
